# xmcd CD database file
#
# Track frame offsets:
#	150
#	18464
#	42528
#	60826
#
# Disc length: 1129 seconds
#
# Revision: 2
# Processed by: cddbd v1.5.2PL0 Copyright (c) Steve Scherf et al.
# Submitted via: CDex 1.70beta3
#
DISCID=2a046704
DTITLE=大友康平 - RISE
DYEAR=2008
DGENRE=J-POP
TTITLE0=RISE
TTITLE1=RISE (acoustic edit)
TTITLE2=RISE (instrumental)
TTITLE3=RISE (acoustic edit instrumental)
EXTD=YEAR: 2008
EXTT0=
EXTT1=
EXTT2=
EXTT3=
PLAYORDER=
